# xmcd
#
# Track frame offsets: 
#        150
#        27117
#        51629
#        84041
#        110744
#        129526
#        151655
#        181984
#        262932
#
# Disc length: 3820 seconds
#
# Revision: 0
# Processed by: cddbd v1.5.2PL0 Copyright (c) Steve Scherf et al.
# Submitted via: ExactAudioCopy v0.99pb5
#
DISCID=6a0eea09
DTITLE=Cream  - Wallingford 1968 (lun)  FLAC
DYEAR=1900
DGENRE=
TTITLE0=White Room
TTITLE1=Politician
TTITLE2=I'm So Glad
TTITLE3=Sitting On Top of the World
TTITLE4=Crossroads
TTITLE5=Sunshine of Your Love
TTITLE6=Traintime
TTITLE7=Spoonful
TTITLE8=Tales of Brave Ulysses
EXTD=
EXTT0=
EXTT1=
EXTT2=
EXTT3=
EXTT4=
EXTT5=
EXTT6=
EXTT7=
EXTT8=
PLAYORDER=
